PathFileType	4	(X/Y/Z)	/Users/visionmauri/Downloads/Videos/OAW04-top_Sports2D/OAW04-top_Sports2D_m_person00.trc
DataRate	CameraRate	NumFrames	NumMarkers	Units	OrigDataRate	OrigDataStartFrame	OrigNumFrames
30.0	30.0	11	22	m	30.0	2071	2367
Frame#	Time	Hip			RHip			RKnee			RAnkle			RBigToe			RSmallToe			RHeel			LHip			LKnee			LAnkle			LBigToe			LSmallToe			LHeel			Neck			Head			Nose			RShoulder			RElbow			RWrist			LShoulder			LElbow			LWrist			
		X1	Y1	Z1	X2	Y2	Z2	X3	Y3	Z3	X4	Y4	Z4	X5	Y5	Z5	X6	Y6	Z6	X7	Y7	Z7	X8	Y8	Z8	X9	Y9	Z9	X10	Y10	Z10	X11	Y11	Z11	X12	Y12	Z12	X13	Y13	Z13	X14	Y14	Z14	X15	Y15	Z15	X16	Y16	Z16	X17	Y17	Z17	X18	Y18	Z18	X19	Y19	Z19	X20	Y20	Z20	X21	Y21	Z21	X22	Y22	Z22
2071	69.06251056635674	9.13752541005334	0.2334615186989073	0.0301	9.139158609197692	0.1904224938294616	0.0301	9.002116002321015	0.14172520274151226	0.129	8.883934395256109	0.10307418356368024	0.023	8.845062904017603	0.0996380233704578	0.2179	8.844813812943567	0.08308628777993728	0.1804	8.85480316385885	0.09531993163863493	-0.0119	9.121308684256313	0.27446736135334376	0.0301	8.98325451050505	0.22880154558139884	0.129	8.841640886484711	0.17356659201452015	0.023	8.794039892797853	0.17247266584354373	0.2179	8.786388741153937	0.18833061167829698	0.1804	8.812080881919725	0.15949251208085913	-0.0119	9.381143355136262	0.2813222694258773	0.0008	9.47639137654133	0.29830670326045283	0.0655	9.40068081325902	0.2758438013756374	0.1076	9.368631877108795	0.20071447359400055	-0.01275	9.245655132026615	0.1427906468991957	0.0702	9.140918150110412	0.11416843798923529	0.1076	9.34207190252743	0.3524811387529805	-0.01275	9.212742885048357	0.3606696747030002	0.0702	9.12681092962526	0.3410586994761876	0.1076
2072	69.09585798816569	9.136366892796294	0.2331377467215708	0.0301	9.137941157923722	0.18999870958372544	0.0301	9.001323246522912	0.1400969017350512	0.129	8.882536959282488	0.10267237697451351	0.023	8.844552948075558	0.09909171115392144	0.2179	8.844069025896443	0.08240052380737095	0.1804	8.853130892928828	0.0949026971686862	-0.0119	9.120080654930405	0.27463068792352757	0.0301	8.982475080037464	0.2283743301845686	0.129	8.840624440609297	0.17337130545452886	0.023	8.793059538253837	0.1709630415974512	0.2179	8.785237893420438	0.18749304108496123	0.1804	8.81077452448137	0.15950087242051617	-0.0119	9.380989196639671	0.28066272498993344	0.0008	9.476681056124944	0.29693954912754034	0.0655	9.401065396295104	0.27426925509729533	0.1076	9.368241876017429	0.19963938837707126	-0.01275	9.24502617653776	0.1409746108755863	0.0702	9.139760019794931	0.11124690685546508	0.1076	9.34168222322906	0.3527048209589856	-0.01275	9.2123914338637	0.3613069795286849	0.0702	9.127185486677869	0.34080916114181364	0.1076
2073	69.12920540997465	9.134989186099657	0.23279080953498305	0.0301	9.136391439534668	0.18939385612672907	0.0301	9.000343240847876	0.1378456174822337	0.129	8.880722956195683	0.10204888810167097	0.023	8.843786157670749	0.09821692084567715	0.2179	8.843079061287082	0.08127241606506563	0.1804	8.850864738990902	0.09462467439347338	-0.0119	9.118518745493015	0.27473827497324044	0.0301	8.981653983078854	0.22784963847756062	0.129	8.839363672566487	0.17315301396591123	0.023	8.79191537412847	0.16905834437422004	0.2179	8.783960149884726	0.1864450519490329	0.1804	8.809126477734619	0.15953254929184446	-0.0119	9.380628721682513	0.2797865178083674	0.0008	9.476765855410916	0.2953462768949264	0.0655	9.401364738445906	0.27227810391435897	0.1076	9.367703303257192	0.19821653700386535	-0.01275	9.244186837397299	0.13846099976951895	0.0702	9.138281340521456	0.10770744282351793	0.1076	9.341156147380525	0.35308121059777503	-0.01275	9.21187084718952	0.36211665262366766	0.0702	9.127522432966272	0.34049455754920416	0.1076
2074	69.16255283178361	9.138305650701888	0.23378954365080268	0.0301	9.139684261850068	0.1904166195851418	0.0301	9.002542321335836	0.14191265314943444	0.129	8.88443619506716	0.10292427444291413	0.023	8.844943373444071	0.09935604127434139	0.2179	8.845014370885645	0.08264565345883594	0.1804	8.85512825885206	0.09623078785447599	-0.0119	9.121842583252727	0.2741072117277918	0.0301	8.984084906039726	0.22904120494271027	0.129	8.842175301556697	0.17373837869297096	0.023	8.794762699781284	0.17317336817591952	0.2179	8.787426087874444	0.18874471925847236	0.1804	8.812687780675244	0.1595496382047265	-0.0119	9.380735740289232	0.28150119795066775	0.0008	9.475446557001193	0.29932142318528654	0.0655	9.399965637577907	0.27656151150765823	0.1076	9.368678621632311	0.20102173500480638	-0.01275	9.245814880902312	0.14299172553075734	0.0702	9.141405290826752	0.11594784037206342	0.1076	9.34215341294878	0.35264918780926546	-0.01275	9.212683247780305	0.36038998341364725	0.0702	9.126245519690265	0.3411752148842051	0.1076
2075	69.19590025359257	9.15159994150694	0.23744602232816472	0.0301	9.153812372062758	0.1954355822098742	0.0301	9.01169697405876	0.16108458472704557	0.129	8.900707338394065	0.10776030225244772	0.023	8.851043040490499	0.10597312304361262	0.2179	8.853722111545125	0.09099818997994016	0.1804	8.874746914289222	0.1006815448032053	-0.0119	9.13609148076397	0.2723668857358221	0.0301	8.992865558809006	0.23396934970580535	0.129	8.853919726263694	0.1759578159722597	0.023	8.80597899759153	0.19066589358205685	0.2179	8.80049195104305	0.19843638360626398	0.1804	8.82782469461871	0.15942012400327035	-0.0119	9.382778584835695	0.28921165023630513	0.0008	9.47252383537568	0.3149595774991217	0.0655	9.395796677526489	0.2948132813749205	0.1076	9.37326956885451	0.213581751595687	-0.01275	9.253173567038878	0.16437835351883476	0.0702	9.154851940796332	0.14957392245077536	0.1076	9.346721960387573	0.3499117453945342	-0.01275	9.216874897973678	0.35299667915831445	0.0702	9.122115114183357	0.3440663246478826	0.1076
2076	69.22924767540154	9.169901218341186	0.24218889003852567	0.0301	9.174366187290879	0.20352603284914472	0.0301	9.024718804620635	0.19129318890678523	0.129	8.924634549354769	0.11603809051709307	0.023	8.86111065949069	0.11745461291030837	0.2179	8.86694778624554	0.10580718271587677	0.1804	8.904526540062603	0.10508051715533155	-0.0119	9.1568657219529	0.270718259061925	0.0301	9.004213671322365	0.2410734794118639	0.129	8.870654805634068	0.17889158816081435	0.023	8.821507844765032	0.2159629638520424	0.2179	8.817928510560574	0.21228067535757553	0.1804	8.849844462229662	0.15904961374905519	-0.0119	9.387210734412085	0.3010489341732606	0.0008	9.470018755778058	0.33702398541647854	0.0655	9.391713790551837	0.3222948481587079	0.1076	9.380423017093527	0.2327175126121198	-0.01275	9.264324644901311	0.1979550351309142	0.0702	9.174118948317348	0.19811747149625777	0.1076	9.35371378111925	0.3449346019147329	-0.01275	9.223691023570645	0.3421019600138352	0.0702	9.117374813452342	0.3482668277818402	0.1076
2077	69.2625950972105	9.180818395285046	0.24497251764936961	0.0301	9.188465404125788	0.21079063355547986	0.0301	9.033145141603141	0.2169182226642648	0.129	8.940837480859175	0.12398942435863106	0.023	8.869901749772211	0.12784840998145885	0.2179	8.877164333935676	0.11969785990813277	0.1804	8.926092878674574	0.10650404873729215	-0.0119	9.171369597026635	0.27058438284141395	0.0301	9.010820587288546	0.24620249414883616	0.129	8.881490551761607	0.1805963068987526	0.023	8.83150869987005	0.23304548255087004	0.2179	8.828353859855362	0.2212265334806509	0.1804	8.865170580002486	0.1585976747482717	-0.0119	9.391860084450581	0.31056911512255436	0.0008	9.4674742362808	0.35293973537255985	0.0655	9.391364068344588	0.3449228157014682	0.1076	9.386050263386217	0.2478614726818758	-0.01275	9.272743940718932	0.22557828573587363	0.0702	9.186018812391685	0.23426389169142886	0.1076	9.359138039570743	0.33982545799890407	-0.01275	9.229300476215936	0.3339419810511246	0.0702	9.115476472790865	0.3511386372094386	0.1076
2078	69.29594251901945	9.180933726818619	0.2459967093717105	0.0301	9.191203246810364	0.21577920688921023	0.0301	9.03429567912791	0.23082784893120306	0.129	8.942600488943453	0.12983370637024985	0.023	8.874431672781848	0.13227468873323212	0.2179	8.881129146719655	0.1262764984380976	0.1804	8.930729925969098	0.10755232297936346	-0.0119	9.174782316609669	0.27135194326613343	0.0301	9.012178907213352	0.2480661023144885	0.129	8.882736337224756	0.18088109329275814	0.023	8.83320698130742	0.23646358009244506	0.2179	8.829699893014876	0.222559077319263	0.1804	8.86881912011597	0.15825510671347698	-0.0119	9.394150797418906	0.314735280976268	0.0008	9.460362527611549	0.35936481275686777	0.0655	9.3924426247728	0.35684065337511883	0.1076	9.388020842212084	0.2548297802833379	-0.01275	9.27548181048817	0.23850017964259385	0.0702	9.185964201869725	0.24953881094010918	0.1076	9.361275939803308	0.33608687957893923	-0.01275	9.231397350957092	0.3303660312519794	0.0702	9.115951270748418	0.35143323190730646	0.1076
2079	69.32928994082842	9.1761988468895	0.2474959666795001	0.0301	9.1872323575858	0.2201896058067386	0.0301	9.032276955176197	0.23764771345973884	0.129	8.935847494516535	0.136137848748529	0.023	8.875263589449707	0.1336231911727228	0.2179	8.88098441079484	0.12812053570116824	0.1804	8.92500797446596	0.11285483852961203	-0.0119	9.171574508262298	0.2713196368146164	0.0301	9.01224153351035	0.24829109874451685	0.129	8.8799815518163	0.18096109191899695	0.023	8.831428269394946	0.23451755098681215	0.2179	8.828439929467718	0.22160933796251567	0.1804	8.867072165753063	0.15785113190563005	-0.0119	9.394159379091926	0.3159308998281396	0.0008	9.448887587425236	0.36194149091103633	0.0655	9.39107889532702	0.36249797429179015	0.1076	9.387786894038282	0.25845337851782024	-0.01275	9.274184706946999	0.24313673847539055	0.0702	9.180521115865554	0.2552984526159593	0.1076	9.361883850984013	0.3331090774662374	-0.01275	9.230847942743639	0.3279469675955254	0.0702	9.116269553248065	0.3497287889828512	0.1076
2080	69.36263736263737	9.17008739163018	0.2491789498465645	0.0301	9.179533902903714	0.22538883618868308	0.0301	9.029244762681978	0.2412324815500035	0.129	8.925724667846993	0.14639108575794374	0.023	8.87099050580714	0.1439814312843625	0.2179	8.877099666385574	0.13810912887592292	0.1804	8.914608655700391	0.12389632236129036	-0.0119	9.16479243141929	0.2697437003958431	0.0301	9.011594109195354	0.24800968270482576	0.129	8.878446127165269	0.18131789246514207	0.023	8.830099485221107	0.23350948198058266	0.2179	8.828439905957088	0.22186467111189184	0.1804	8.86575475131208	0.15713719073369084	-0.0119	9.393464795860773	0.31761071189146795	0.0008	9.440897288903095	0.3643615477807729	0.0655	9.38964216417188	0.3678689738612227	0.1076	9.387202840670763	0.26329069594093124	-0.01275	9.269924215042195	0.24690235941666777	0.0702	9.174120663138739	0.26056921272917577	0.1076	9.362961493145878	0.3296512797261077	-0.01275	9.229304762436202	0.32385124640314344	0.0702	9.115776793336723	0.34670583767910523	0.1076
2081	69.39598478444634	9.16382786170181	0.24987907097133508	0.0301	9.16922707657912	0.23234505600792932	0.0301	9.024873681575142	0.24250428064717838	0.129	8.913083815930685	0.16116764262046676	0.023	8.859140930586353	0.17303641894248678	0.2179	8.868022052762864	0.16720818100110227	0.1804	8.899856407962718	0.13918697186446435	-0.0119	9.156405868221722	0.2673390784353154	0.0301	9.009799570217961	0.24809271713833034	0.129	8.87975738133168	0.18170504930436937	0.023	8.830429147549987	0.23213676450467824	0.2179	8.830032977264239	0.2212884649913211	0.1804	8.866354621123493	0.15618815663032254	-0.0119	9.392495142827357	0.32103733067240414	0.0008	9.44089534576504	0.3669869903157753	0.0655	9.390997661371305	0.3747925535940029	0.1076	9.386255550085849	0.26973484276000376	-0.01275	9.263890191686421	0.25157228693451045	0.0702	9.167538449391326	0.26909844517603865	0.1076	9.364844839891202	0.3254667433476928	-0.01275	9.228914880679188	0.3175718931396073	0.0702	9.115211334083257	0.3425374219284142	0.1076
